<?xml version="1.0" standalone="no"?>
 <!DOCTYPE svg PUBLIC "-//W3C//DTD SVG 1.1//EN" 
 "http://www.w3.org/Graphics/SVG/1.1/DTD/svg11.dtd"> 
<svg
  xmlns:svg="http://www.w3.org/2000/svg"
  xmlns="http://www.w3.org/2000/svg"
  xmlns:xlink="http://www.w3.org/1999/xlink"
  version="1.1"
  width="419.9890mm" height="297.0022mm" viewBox="0.0000 0.0000 419.9890 297.0022">
<title>SVG Image created as mejiro_siki_TOP_L-Edge_Cuts.svg date 2025/07/07 07:44:12 </title>
  <desc>Image generated by PCBNEW </desc>
<g style="fill:#000000; fill-opacity:1.0000;stroke:#000000; stroke-opacity:1.0000;
stroke-linecap:round; stroke-linejoin:round;"
 transform="translate(0 0) scale(1 1)">
</g>
<g style="fill:none; 
stroke:#000000; stroke-width:0.0500; stroke-opacity:1; 
stroke-linecap:round; stroke-linejoin:round;">
<path d="M371.0200 187.5000 A5.0000 5.0000 0.0 0 0 376.0200 182.5000" />
<path d="M228.5200 82.5000 A5.0000 5.0000 0.0 0 0 223.5200 87.5000" />
<path d="M223.5200 94.2340
L223.5200 87.5000
" />
<path d="M376.0200 87.5000 A5.0000 5.0000 0.0 0 0 371.0200 82.5000" />
<path d="M228.5200 82.5000
L371.0200 82.5000
" />
<path d="M371.0200 187.5000
L228.5200 187.5000
" />
<path d="M223.5200 182.5000
L223.5200 171.4500
" />
<path d="M223.5200 182.5000 A5.0000 5.0000 0.0 0 0 228.5200 187.5000" />
<path d="M376.0200 87.5000
L376.0200 182.5000
" />
<path d="M223.5200 94.2340
L223.5200 176.9750
" />
</g>
<g style="fill:none; 
stroke:#000000; stroke-width:0.0100; stroke-opacity:1; 
stroke-linecap:round; stroke-linejoin:round;">
<circle cx="370.7850" cy="88.7400" r="1.1000" /> 
<circle cx="232.6640" cy="90.6780" r="1.1000" /> 
<circle cx="229.6750" cy="180.7400" r="1.1000" /> 
<circle cx="300.2350" cy="180.6900" r="1.1000" /> 
<circle cx="371.0450" cy="182.1000" r="1.1000" /> 
<circle cx="265.1750" cy="88.3200" r="1.1000" /> 
<circle cx="266.9750" cy="156.2200" r="1.1000" /> 
<circle cx="334.2750" cy="135.6200" r="1.1000" /> 
</g>
<g style="fill:none; 
stroke:#000000; stroke-width:0.1500; stroke-opacity:1; 
stroke-linecap:round; stroke-linejoin:round;">
<path d="M265.6250 122.4600
L265.6250 136.5600
" />
<path d="M251.5250 122.4600
L265.6250 122.4600
" />
<path d="M265.6250 136.5600
L251.5250 136.5600
" />
<path d="M251.5250 136.5600
L251.5250 122.4600
" />
<path d="M247.1250 122.4600
L247.1250 136.5600
" />
<path d="M233.0250 122.4600
L247.1250 122.4600
" />
<path d="M247.1250 136.5600
L233.0250 136.5600
" />
<path d="M233.0250 136.5600
L233.0250 122.4600
" />
<path d="M344.7750 146.9600
L358.8750 146.9600
" />
<path d="M344.7750 161.0600
L344.7750 146.9600
" />
<path d="M358.8750 146.9600
L358.8750 161.0600
" />
<path d="M358.8750 161.0600
L344.7750 161.0600
" />
<path d="M272.5250 109.2100
L286.6250 109.2100
" />
<path d="M272.5250 123.3100
L272.5250 109.2100
" />
<path d="M286.6250 109.2100
L286.6250 123.3100
" />
<path d="M286.6250 123.3100
L272.5250 123.3100
" />
<path d="M335.5250 165.4600
L349.6250 165.4600
" />
<path d="M335.5250 179.5600
L335.5250 165.4600
" />
<path d="M349.6250 165.4600
L349.6250 179.5600
" />
<path d="M349.6250 179.5600
L335.5250 179.5600
" />
<path d="M292.5250 86.7100
L306.6250 86.7100
" />
<path d="M292.5250 100.8100
L292.5250 86.7100
" />
<path d="M306.6250 86.7100
L306.6250 100.8100
" />
<path d="M306.6250 100.8100
L292.5250 100.8100
" />
<path d="M313.2750 109.2100
L327.3750 109.2100
" />
<path d="M313.2750 123.3100
L313.2750 109.2100
" />
<path d="M327.3750 109.2100
L327.3750 123.3100
" />
<path d="M327.3750 123.3100
L313.2750 123.3100
" />
<path d="M354.0250 165.4600
L368.1250 165.4600
" />
<path d="M354.0250 179.5600
L354.0250 165.4600
" />
<path d="M368.1250 165.4600
L368.1250 179.5600
" />
<path d="M368.1250 179.5600
L354.0250 179.5600
" />
<path d="M292.5250 105.2100
L306.6250 105.2100
" />
<path d="M292.5250 119.3100
L292.5250 105.2100
" />
<path d="M306.6250 105.2100
L306.6250 119.3100
" />
<path d="M306.6250 119.3100
L292.5250 119.3100
" />
<path d="M313.2750 90.7100
L327.3750 90.7100
" />
<path d="M313.2750 104.8100
L313.2750 90.7100
" />
<path d="M327.3750 90.7100
L327.3750 104.8100
" />
<path d="M327.3750 104.8100
L313.2750 104.8100
" />
<path d="M272.5250 90.7100
L286.6250 90.7100
" />
<path d="M272.5250 104.8100
L272.5250 90.7100
" />
<path d="M286.6250 90.7100
L286.6250 104.8100
" />
<path d="M286.6250 104.8100
L272.5250 104.8100
" />
<path d="M331.7750 109.2100
L345.8750 109.2100
" />
<path d="M331.7750 123.3100
L331.7750 109.2100
" />
<path d="M345.8750 109.2100
L345.8750 123.3100
" />
<path d="M345.8750 123.3100
L331.7750 123.3100
" />
<path d="M331.7750 90.7100
L345.8750 90.7100
" />
<path d="M331.7750 104.8100
L331.7750 90.7100
" />
<path d="M345.8750 90.7100
L345.8750 104.8100
" />
<path d="M345.8750 104.8100
L331.7750 104.8100
" />
</g> 
</svg>
