<?xml version="1.0" standalone="no"?>
 <!DOCTYPE svg PUBLIC "-//W3C//DTD SVG 1.1//EN" 
 "http://www.w3.org/Graphics/SVG/1.1/DTD/svg11.dtd"> 
<svg
  xmlns:svg="http://www.w3.org/2000/svg"
  xmlns="http://www.w3.org/2000/svg"
  xmlns:xlink="http://www.w3.org/1999/xlink"
  version="1.1"
  width="419.9890mm" height="297.0022mm" viewBox="0.0000 0.0000 419.9890 297.0022">
<title>SVG Image created as mejiro_siki_BOT_L-Edge_Cuts.svg date 2025/07/07 08:43:10 </title>
  <desc>Image generated by PCBNEW </desc>
<g style="fill:#000000; fill-opacity:1.0000;stroke:#000000; stroke-opacity:1.0000;
stroke-linecap:round; stroke-linejoin:round;"
 transform="translate(0 0) scale(1 1)">
</g>
<g style="fill:none; 
stroke:#000000; stroke-width:0.0500; stroke-opacity:1; 
stroke-linecap:round; stroke-linejoin:round;">
<path d="M376.0532 153.0784 A1.1430 1.1430 0.0 0 0 374.9102 151.9354" />
<path d="M371.0200 187.5000 A5.0000 5.0000 0.0 0 0 376.0200 182.5000" />
<path d="M374.9102 151.9417
L359.2038 151.9654
" />
<path d="M228.5200 82.5000 A5.0000 5.0000 0.0 0 0 223.5200 87.5000" />
<path d="M223.5200 94.2340
L223.5200 87.5000
" />
<path d="M376.0200 87.5000 A5.0000 5.0000 0.0 0 0 371.0200 82.5000" />
<path d="M376.0532 153.0784
L376.0200 182.5000
" />
<path d="M228.5200 82.5000
L371.0200 82.5000
" />
<path d="M371.0200 187.5000
L228.5200 187.5000
" />
<path d="M358.0608 124.9860
L358.0654 150.8224
" />
<path d="M376.0200 87.5000
L376.0278 122.7092
" />
<path d="M223.5200 182.5000
L223.5200 171.4500
" />
<path d="M358.0608 150.8224 A1.1430 1.1430 0.0 0 0 359.2038 151.9654" />
<path d="M223.5200 94.2340
L223.5200 171.4500
" />
<path d="M359.2038 123.8430
L374.8848 123.8522
" />
<path d="M359.2038 123.8430 A1.1430 1.1430 0.0 0 0 358.0608 124.9860" />
<path d="M374.8848 123.8522 A1.1430 1.1430 0.0 0 0 376.0278 122.7092" />
<path d="M223.5200 182.5000 A5.0000 5.0000 0.0 0 0 228.5200 187.5000" />
</g>
<g style="fill:none; 
stroke:#000000; stroke-width:0.0100; stroke-opacity:1; 
stroke-linecap:round; stroke-linejoin:round;">
<circle cx="370.7850" cy="88.7400" r="1.1000" /> 
<circle cx="232.6640" cy="90.6780" r="1.1000" /> 
<circle cx="229.6750" cy="180.7400" r="1.1000" /> 
<circle cx="300.2350" cy="180.6900" r="1.1000" /> 
<circle cx="371.0450" cy="182.1000" r="1.1000" /> 
<circle cx="265.1750" cy="88.3200" r="1.1000" /> 
<circle cx="266.9750" cy="156.2200" r="1.1000" /> 
<circle cx="334.2750" cy="135.6200" r="1.1000" /> 
</g> 
</svg>
