<?xml version="1.0" standalone="no"?>
 <!DOCTYPE svg PUBLIC "-//W3C//DTD SVG 1.1//EN" 
 "http://www.w3.org/Graphics/SVG/1.1/DTD/svg11.dtd"> 
<svg
  xmlns:svg="http://www.w3.org/2000/svg"
  xmlns="http://www.w3.org/2000/svg"
  xmlns:xlink="http://www.w3.org/1999/xlink"
  version="1.1"
  width="419.9890mm" height="297.0022mm" viewBox="0.0000 0.0000 419.9890 297.0022">
<title>SVG Image created as mejiro_sikiBOT_R-Edge_Cuts.svg date 2025/07/07 08:45:10 </title>
  <desc>Image generated by PCBNEW </desc>
<g style="fill:#000000; fill-opacity:1.0000;stroke:#000000; stroke-opacity:1.0000;
stroke-linecap:round; stroke-linejoin:round;"
 transform="translate(0 0) scale(1 1)">
</g>
<g style="fill:none; 
stroke:#000000; stroke-width:0.0500; stroke-opacity:1; 
stroke-linecap:round; stroke-linejoin:round;">
<path d="M215.9800 187.5000 A5.0000 5.0000 0.0 0 0 220.9800 182.5000" />
<path d="M220.9800 87.5000
L220.9915 94.2858
" />
<path d="M220.9800 171.4500
L220.9800 182.5000
" />
<path d="M69.8996 150.7942 A1.3970 1.3970 0.0 0 0 68.5026 152.1912" />
<path d="M68.5026 152.1912
L68.4800 182.5000
" />
<path d="M68.4800 182.5000 A5.0000 5.0000 0.0 0 0 73.4800 187.5000" />
<path d="M86.3898 123.7178 A1.3970 1.3970 0.0 0 0 84.9928 122.3208" />
<path d="M73.4800 82.5000 A5.0000 5.0000 0.0 0 0 68.4800 87.5030" />
<path d="M220.9800 87.5000 A5.0000 5.0000 0.0 0 0 215.9800 82.5000" />
<path d="M68.5026 120.9266 A1.3970 1.3970 0.0 0 0 69.8996 122.3236" />
<path d="M84.9048 150.7942
L69.8996 150.7942
" />
<path d="M69.8996 122.3236
L84.9928 122.3208
" />
<path d="M73.4800 82.5000
L215.9800 82.5000
" />
<path d="M220.9915 94.2858
L220.9800 171.4500
" />
<path d="M84.9928 150.7998 A1.3970 1.3970 0.0 0 0 86.3898 149.4028" />
<path d="M215.9800 187.5000
L73.4800 187.5000
" />
<path d="M68.5026 120.9178
L68.4800 87.5030
" />
<path d="M86.3870 123.7178
L86.3898 149.4028
" />
</g>
<g style="fill:none; 
stroke:#000000; stroke-width:0.0100; stroke-opacity:1; 
stroke-linecap:round; stroke-linejoin:round;">
<circle cx="74.7300" cy="88.8000" r="1.1000" /> 
<circle cx="128.6800" cy="172.0750" r="1.1000" /> 
<circle cx="74.2800" cy="181.6250" r="1.1000" /> 
<circle cx="168.1300" cy="146.3500" r="1.1000" /> 
<circle cx="209.5500" cy="91.4400" r="1.1000" /> 
<circle cx="213.7050" cy="182.1250" r="1.1000" /> 
</g> 
</svg>
